<svg xmlns="http://www.w3.org/2000/svg" width="90" height="21" viewBox="0 0 90 21">
  <g fill="#FFF" fill-rule="evenodd">
    <path d="M79 8.15851906L87.3153607 3.17092019C87.5018252 3.05907775 87.7151739 3 87.9326084 3 88.5953501 3 89.1326084 3.5372583 89.1326084 4.2L89.1326084 18.2743478C89.1326084 18.4917823 89.0735306 18.705131 88.9616882 18.8915955 88.6207917 19.4599406 87.8837057 19.6443241 87.3153607 19.3034276L79 14.3158287 79 18C79 19.6568542 77.6568542 21 76 21L38 21C36.3431458 21 35 19.6568542 35 18L35 3C35 1.34314575 36.3431458 3.04359188e-16 38 0L76 0C77.6568542-3.04359188e-16 79 1.34314575 79 3L79 8.15851906zM41.5514134 4.14694972L38.741 4.14694972 38.741 17.0050503 40.5043966 17.0050503 40.5043966 7.91253631 42.0106313 17.0050503 43.9209777 17.0050503 45.317 7.78395531 45.317 17.0050503 47.2273464 17.0050503 47.2273464 4.14694972 44.416933 4.14694972 43.0392793 13.2762011 41.5514134 4.14694972zM51.1172751 7.10431285C51.1172751 6.18587709 51.5213868 5.83687151 52.1642918 5.83687151 52.8071968 5.83687151 53.2113086 6.18587709 53.2113086 7.10431285L53.2113086 14.0476872C53.2113086 14.9661229 52.8071968 15.3151285 52.1642918 15.3151285 51.5213868 15.3151285 51.1172751 14.9661229 51.1172751 14.0476872L51.1172751 7.10431285zM49.0967164 13.9191061C49.0967164 15.9764022 50.1804706 17.152 52.1642918 17.152 54.148113 17.152 55.2318672 15.9764022 55.2318672 13.9191061L55.2318672 7.23289385C55.2318672 5.17559777 54.148113 4 52.1642918 4 50.1804706 4 49.0967164 5.17559777 49.0967164 7.23289385L49.0967164 13.9191061zM58.5891032 4.14694972L56.5501758 4.14694972 58.533997 17.0050503 61.5464663 17.0050503 63.5302875 4.14694972 61.6750473 4.14694972 60.1320753 14.635486 58.5891032 4.14694972zM65.0322833 17.0050503L67.0528419 17.0050503 67.0528419 4.14694972 65.0322833 4.14694972 65.0322833 17.0050503zM71.1080891 5.98382123L74.5981449 5.98382123 74.5981449 4.14694972 69.0875304 4.14694972 69.0875304 17.0050503 74.5981449 17.0050503 74.5981449 15.1681788 71.1080891 15.1681788 71.1080891 11.4025922 73.881765 11.4025922 73.881765 9.56572067 71.1080891 9.56572067 71.1080891 5.98382123zM4.36724937 12.7150021L6.39490086 12.7150021 6.39490086 14.5281904C6.39490086 16.7118151 5.30308852 17.9596007 3.19745043 17.9596007 1.09181234 17.9596007 0 16.7118151 0 14.5281904L0 7.43141022C0 5.24778553 1.09181234 4 3.19745043 4 5.30308852 4 6.39490086 5.24778553 6.39490086 7.43141022L6.39490086 8.75718235 4.36724937 8.75718235 4.36724937 7.29493368C4.36724937 6.32010123 3.93832309 5.9496649 3.25594038 5.9496649 2.57355766 5.9496649 2.14463139 6.32010123 2.14463139 7.29493368L2.14463139 14.664667C2.14463139 15.6394994 2.57355766 15.9904391 3.25594038 15.9904391 3.93832309 15.9904391 4.36724937 15.6394994 4.36724937 14.664667L4.36724937 12.7150021zM10.4457046 11.9546328L10.4457046 17.8036275 8.30107326 17.8036275 8.30107326 4.15597319 10.4457046 4.15597319 10.4457046 10.0049679 12.8827858 10.0049679 12.8827858 4.15597319 15.0664105 4.15597319 15.0664105 17.8036275 12.8827858 17.8036275 12.8827858 11.9546328 10.4457046 11.9546328zM23.8938932 17.8036275L21.7102685 17.8036275C21.5932887 17.4526878 21.5153021 17.2382246 21.5153021 16.1269157L21.5153021 13.9822843C21.5153021 12.7150021 21.0863758 12.2470825 20.1115433 12.2470825L19.3706707 12.2470825 19.3706707 17.8036275 17.2260393 17.8036275 17.2260393 4.15597319 20.462483 4.15597319C22.685101 4.15597319 23.6404368 5.18929559 23.6404368 7.29493368L23.6404368 8.36724937C23.6404368 9.77100809 23.1920139 10.6873506 22.2366781 11.1357735 23.3089938 11.5841964 23.6599334 12.6175188 23.6599334 14.0407742L23.6599334 16.1464123C23.6599334 16.8092984 23.6794301 17.2967146 23.8938932 17.8036275zM20.4039931 6.10563809L19.3706707 6.10563809 19.3706707 10.2974176 20.2090266 10.2974176C21.0083892 10.2974176 21.4958054 9.94647793 21.4958054 8.85466559L21.4958054 7.50939681C21.4958054 6.53456437 21.1643624 6.10563809 20.4039931 6.10563809zM27.6327506 7.29493368L27.6327506 14.664667C27.6327506 15.6394994 28.0616769 16.0099358 28.7440596 16.0099358 29.4264423 16.0099358 29.8553686 15.6394994 29.8553686 14.664667L29.8553686 7.29493368C29.8553686 6.32010123 29.4264423 5.9496649 28.7440596 5.9496649 28.0616769 5.9496649 27.6327506 6.32010123 27.6327506 7.29493368zM25.4881192 14.5281904L25.4881192 7.43141022C25.4881192 5.24778553 26.6384215 4 28.7440596 4 30.8496977 4 32 5.24778553 32 7.43141022L32 14.5281904C32 16.7118151 30.8496977 17.9596007 28.7440596 17.9596007 26.6384215 17.9596007 25.4881192 16.7118151 25.4881192 14.5281904z"/>
  </g>
</svg>
